# xmcd
#
# Track frame offsets: 
#        150
#        16390
#        37457
#        56162
#        74685
#        93010
#        113710
#        135180
#        154075
#        170410
#        192040
#        214820
#
# Disc length: 3190 seconds
#
# Revision: 4
# Processed by: cddbd v1.5.2PL0 Copyright (c) Steve Scherf et al.
# Submitted via: ExactAudioCopy v0.95a4
#
DISCID=990c740c,a50c740c
DTITLE=Wolle Kriwanek Band - Hot Wollé
DYEAR=1993
DGENRE=Blues
TTITLE0=Knallroter Porsche
TTITLE1=Hektik
TTITLE2=Mike (Mit dem Mountain-Bike)
TTITLE3=Stuttgart
TTITLE4=Angst vorm Fliega
TTITLE5=Halbzeit
TTITLE6=Hefeteig (Warum goht mei Teig net uf?)
TTITLE7=I bin der Liebhaber
TTITLE8=Keimfrei
TTITLE9=I spiel Tennis (Tennis isch toll)
TTITLE10=O lieber Gott
TTITLE11=Greenpeace (Instrumental)
EXTD=Year: 1993\n\n\nWolle Kriwanek  -  Gesang\n\nPaul Vincent       -
EXTD=Gitarren\n\nDieter Stümpfl     -  Schlagzeug, Percussion\n\nMic
EXTD=k Brehmen    -  Bass\n\n\n\n   
EXTT0=
EXTT1=
EXTT2=
EXTT3=
EXTT4=
EXTT5=
EXTT6=
EXTT7=
EXTT8=
EXTT9=
EXTT10=
EXTT11=
PLAYORDER=
